dataset
version=1
nRows=16
nColumns=39
inDegrees=no
endheader
time	sternoclavicular_r2	sternoclavicular_r3	unrotscap_r3	unrotscap_r2	acromioclavicular_r2	acromioclavicular_r3	acromioclavicular_r1	unrothum_r1	unrothum_r3	unrothum_r2	elv_angle	shoulder_elv	shoulder1_r2	shoulder_rot	elbow_flexion	pro_sup	deviation	flexion	cmc_abduction	cmc_flexion	mp_flexion	ip_flexion	mcp2_flexion	mcp2_abduction	pm2_flexion	md2_flexion	mcp3_flexion	mcp3_abduction	pm3_flexion	md3_flexion	mcp4_flexion	mcp4_abduction	pm4_flexion	md4_flexion	mcp5_flexion	mcp5_abduction	pm5_flexion	md5_flexion
5.310000	-0.030053	-0.515952	0.337492	0.130334	0.080213	0.243234	-0.252338	0.120014	-0.098192	0.079185	0.060964	0.027437	0.146525	0.146525	2.484681	0.878898	0.000000	0.000000	0.000000	0.000000	0.000000	0.000000	0.000000	0.000000	0.000000	0.000000	0.000000	0.000000	0.000000	0.000000	0.000000	0.000000	0.000000	0.000000	0.000000	0.000000	0.000000	0.000000
5.315000	-0.029847	-0.515639	0.336899	0.130225	0.080064	0.243416	-0.251564	0.119858	-0.097348	0.079022	0.061044	0.027437	0.146525	0.146525	2.485469	0.886346	0.000000	0.000000	0.000000	0.000000	0.000000	0.000000	0.000000	0.000000	0.000000	0.000000	0.000000	0.000000	0.000000	0.000000	0.000000	0.000000	0.000000	0.000000	0.000000	0.000000	0.000000	0.000000
5.320000	-0.029648	-0.515334	0.336332	0.130127	0.079926	0.243603	-0.250815	0.119711	-0.096522	0.078868	0.061128	0.027437	0.146525	0.146525	2.486236	0.893663	0.000000	0.000000	0.000000	0.000000	0.000000	0.000000	0.000000	0.000000	0.000000	0.000000	0.000000	0.000000	0.000000	0.000000	0.000000	0.000000	0.000000	0.000000	0.000000	0.000000	0.000000	0.000000
5.325000	-0.029455	-0.515040	0.335791	0.130039	0.079796	0.243797	-0.250091	0.119573	-0.095714	0.078721	0.061216	0.027437	0.146525	0.146525	2.486982	0.900851	0.000000	0.000000	0.000000	0.000000	0.000000	0.000000	0.000000	0.000000	0.000000	0.000000	0.000000	0.000000	0.000000	0.000000	0.000000	0.000000	0.000000	0.000000	0.000000	0.000000	0.000000	0.000000
5.330000	-0.029268	-0.514755	0.335275	0.129962	0.079676	0.243995	-0.249391	0.119444	-0.094924	0.078583	0.061307	0.027437	0.146525	0.146525	2.487707	0.907912	0.000000	0.000000	0.000000	0.000000	0.000000	0.000000	0.000000	0.000000	0.000000	0.000000	0.000000	0.000000	0.000000	0.000000	0.000000	0.000000	0.000000	0.000000	0.000000	0.000000	0.000000	0.000000
5.335000	-0.029087	-0.514479	0.334785	0.129895	0.079566	0.244199	-0.248717	0.119324	-0.094153	0.078452	0.061400	0.027437	0.146525	0.146525	2.488412	0.914847	0.000000	0.000000	0.000000	0.000000	0.000000	0.000000	0.000000	0.000000	0.000000	0.000000	0.000000	0.000000	0.000000	0.000000	0.000000	0.000000	0.000000	0.000000	0.000000	0.000000	0.000000	0.000000
5.340000	-0.028912	-0.514213	0.334320	0.129837	0.079464	0.244409	-0.248067	0.119212	-0.093399	0.078328	0.061497	0.027437	0.146525	0.146525	2.489097	0.921660	0.000000	0.000000	0.000000	0.000000	0.000000	0.000000	0.000000	0.000000	0.000000	0.000000	0.000000	0.000000	0.000000	0.000000	0.000000	0.000000	0.000000	0.000000	0.000000	0.000000	0.000000	0.000000
5.345000	-0.028743	-0.513955	0.333881	0.129789	0.079370	0.244624	-0.247442	0.119109	-0.092664	0.078211	0.061596	0.027437	0.146525	0.146525	2.489762	0.928352	0.000000	0.000000	0.000000	0.000000	0.000000	0.000000	0.000000	0.000000	0.000000	0.000000	0.000000	0.000000	0.000000	0.000000	0.000000	0.000000	0.000000	0.000000	0.000000	0.000000	0.000000	0.000000
5.350000	-0.028580	-0.513708	0.333466	0.129750	0.079285	0.244843	-0.246842	0.119014	-0.091947	0.078102	0.061698	0.027437	0.146525	0.146525	2.490409	0.934925	0.000000	0.000000	0.000000	0.000000	0.000000	0.000000	0.000000	0.000000	0.000000	0.000000	0.000000	0.000000	0.000000	0.000000	0.000000	0.000000	0.000000	0.000000	0.000000	0.000000	0.000000	0.000000
5.355000	-0.028422	-0.513469	0.333075	0.129719	0.079208	0.245068	-0.246266	0.118928	-0.091247	0.077999	0.061802	0.027437	0.146525	0.146525	2.491037	0.941381	0.000000	0.000000	0.000000	0.000000	0.000000	0.000000	0.000000	0.000000	0.000000	0.000000	0.000000	0.000000	0.000000	0.000000	0.000000	0.000000	0.000000	0.000000	0.000000	0.000000	0.000000	0.000000
5.360000	-0.028269	-0.513239	0.332709	0.129697	0.079139	0.245297	-0.245713	0.118850	-0.090566	0.077902	0.061907	0.027437	0.146525	0.146525	2.491646	0.947722	0.000000	0.000000	0.000000	0.000000	0.000000	0.000000	0.000000	0.000000	0.000000	0.000000	0.000000	0.000000	0.000000	0.000000	0.000000	0.000000	0.000000	0.000000	0.000000	0.000000	0.000000	0.000000
5.365000	-0.028122	-0.513018	0.332366	0.129684	0.079077	0.245531	-0.245185	0.118780	-0.089903	0.077812	0.062014	0.027437	0.146525	0.146525	2.492238	0.953950	0.000000	0.000000	0.000000	0.000000	0.000000	0.000000	0.000000	0.000000	0.000000	0.000000	0.000000	0.000000	0.000000	0.000000	0.000000	0.000000	0.000000	0.000000	0.000000	0.000000	0.000000	0.000000
5.370000	-0.027980	-0.512806	0.332047	0.129678	0.079022	0.245769	-0.244679	0.118717	-0.089258	0.077727	0.062122	0.027437	0.146525	0.146525	2.492813	0.960067	0.000000	0.000000	0.000000	0.000000	0.000000	0.000000	0.000000	0.000000	0.000000	0.000000	0.000000	0.000000	0.000000	0.000000	0.000000	0.000000	0.000000	0.000000	0.000000	0.000000	0.000000	0.000000
5.375000	-0.027843	-0.512602	0.331751	0.129679	0.078974	0.246012	-0.244197	0.118662	-0.088630	0.077648	0.062231	0.027437	0.146525	0.146525	2.493371	0.966074	0.000000	0.000000	0.000000	0.000000	0.000000	0.000000	0.000000	0.000000	0.000000	0.000000	0.000000	0.000000	0.000000	0.000000	0.000000	0.000000	0.000000	0.000000	0.000000	0.000000	0.000000	0.000000
5.380000	-0.027711	-0.512407	0.331476	0.129687	0.078932	0.246258	-0.243737	0.118615	-0.088020	0.077574	0.062342	0.027437	0.146525	0.146525	2.493913	0.971975	0.000000	0.000000	0.000000	0.000000	0.000000	0.000000	0.000000	0.000000	0.000000	0.000000	0.000000	0.000000	0.000000	0.000000	0.000000	0.000000	0.000000	0.000000	0.000000	0.000000	0.000000	0.000000
5.385000	-0.027584	-0.512220	0.331224	0.129702	0.078896	0.246508	-0.243299	0.118575	-0.087427	0.077505	0.062452	0.027437	0.146525	0.146525	2.494439	0.977769	0.000000	0.000000	0.000000	0.000000	0.000000	0.000000	0.000000	0.000000	0.000000	0.000000	0.000000	0.000000	0.000000	0.000000	0.000000	0.000000	0.000000	0.000000	0.000000	0.000000	0.000000	0.000000
